<?xml version="1.0" encoding="utf-8"?>
<!-- Generator: Adobe Illustrator 17.0.0, SVG Export Plug-In . SVG Version: 6.00 Build 0)  -->
<!DOCTYPE svg PUBLIC "-//W3C//DTD SVG 1.1//EN" "http://www.w3.org/Graphics/SVG/1.1/DTD/svg11.dtd">
<svg version="1.1" id="Layer_1" xmlns="http://www.w3.org/2000/svg" xmlns:xlink="http://www.w3.org/1999/xlink" x="0px" y="0px"
	 width="45.415px" height="52.332px" viewBox="0 0 45.415 52.332" enable-background="new 0 0 45.415 52.332" xml:space="preserve">
<g>
	<g opacity="0.25">
		<g>
			<defs>
				<rect id="SVGID_1_" x="2.067" y="2.42" width="40.455" height="47.81"/>
			</defs>
			<clipPath id="SVGID_2_">
				<use xlink:href="#SVGID_1_"  overflow="visible"/>
			</clipPath>
			<path clip-path="url(#SVGID_2_)" fill="#C4D600" d="M38.844,13.454h3.678V6.099l-3.678-3.678H2.067v7.356l3.678,3.677h3.678
				V9.777h9.194v1.838H13.1v1.839l1.839,1.839v1.839h-3.677c-5.078,0-9.195,4.117-9.195,9.194c0,2.673,1.141,5.079,2.962,6.759
				c0.168,0.182,2.97,2.984,3.152,3.152c1.68,1.821,4.086,2.961,6.758,2.961h3.678v3.678h-3.678v3.678l3.678,3.678H29.65v-3.678
				l-3.678-3.678v-3.678h7.54c4.448,0,8.158-3.158,9.01-7.355l-3.678-3.678h-3.808c-0.758,2.143-2.8,3.678-5.202,3.678h-3.862
				v-1.905c2.819-0.403,5.051-2.632,5.455-5.45h2.085c0.646,0,1.265,0.112,1.841,0.317l3.36,3.36h3.809V20.81l-3.678-3.678h-3.677
				v1.706c-1.504-1.073-3.344-1.706-5.333-1.706h-0.279l-3.583-3.582V9.777h9.195L38.844,13.454z M14.939,24.487L14.939,24.487
				L14.939,24.487L14.939,24.487z M18.617,31.842h-7.355c-0.558,0-1.095-0.083-1.602-0.237c-0.154-0.507-0.237-1.045-0.237-1.602
				c0-2.402,1.535-4.444,3.677-5.202v1.524l3.678,3.678h1.839V31.842z"/>
		</g>
	</g>
	<path fill="#FFFFFF" d="M29.834,31.842h-7.54v-5.582c-0.3,0.043-0.607,0.065-0.919,0.065h-2.758v5.517h-7.356
		c-3.046,0-5.516-2.47-5.516-5.517c0-3.046,2.47-5.516,5.516-5.516h3.678v-3.678h-3.678c-5.078,0-9.194,4.117-9.194,9.194
		c0,5.078,4.116,9.195,9.194,9.195h7.356v7.355h-3.678v3.678h11.033v-3.678h-3.678v-7.355h7.54c4.448,0,8.158-3.159,9.01-7.356
		h-3.809C34.278,30.308,32.236,31.842,29.834,31.842"/>
	<path fill="#FFFFFF" d="M38.844,9.776V2.421H2.067v7.355h3.677V6.098h12.873v5.517v1.839v3.677h-1.839v3.678h1.839v3.678h2.758
		c0.315,0,0.622-0.033,0.919-0.093v-3.585h7.54c2.402,0,4.444,1.536,5.201,3.678h3.809v-7.356h-3.678v1.706
		c-1.504-1.073-3.344-1.706-5.332-1.706h-7.54V6.098h12.872v3.678H38.844z"/>
	<path fill="#C4D600" d="M25.879,20.809c-0.426,2.098-2.28,3.678-4.504,3.678h-4.598V13.454h1.839v-1.839H13.1v1.839h1.839v11.033
		H13.1v1.839h8.275c3.242,0,5.926-2.398,6.373-5.517H25.879z"/>
</g>
<path fill="#C4D600" d="M27.746,17.132c-0.403-2.818-2.632-5.047-5.451-5.45v1.864c1.801,0.366,3.219,1.785,3.585,3.586H27.746z"/>
</svg>
