<?xml version="1.0" encoding="utf-8"?>
<!-- Generator: Adobe Illustrator 17.0.0, SVG Export Plug-In . SVG Version: 6.00 Build 0)  -->
<!DOCTYPE svg PUBLIC "-//W3C//DTD SVG 1.1//EN" "http://www.w3.org/Graphics/SVG/1.1/DTD/svg11.dtd">
<svg version="1.1" id="Layer_1" xmlns="http://www.w3.org/2000/svg" xmlns:xlink="http://www.w3.org/1999/xlink" x="0px" y="0px"
	 width="175px" height="60px" viewBox="0 0 175 60" enable-background="new 0 0 175 60" xml:space="preserve">
<path fill="#FFFFFF" d="M148.833,44.5c0-3.452,2.798-6.25,6.25-6.25h4.167c3.452,0,6.25,2.798,6.25,6.25
	c0,3.452-2.798,6.25-6.25,6.25h-4.167C151.631,50.75,148.833,47.952,148.833,44.5 M144.666,44.5c0,5.753,4.664,10.417,10.417,10.417
	h4.167c5.753,0,10.416-4.664,10.416-10.417c0-5.753-4.663-10.417-10.416-10.417h-4.167C149.33,34.083,144.666,38.747,144.666,44.5
	 M115.5,34.083H103v4.167h4.167v12.5H103v4.167h12.5V50.75h-4.167v-12.5h4.167V34.083z M84.25,38.25h6.25
	c3.452,0,6.25,2.798,6.25,6.25c0,3.452-2.798,6.25-6.25,6.25h-6.25V38.25z M90.5,34.083H75.916v4.167h4.167v12.5h-4.167v4.167H90.5
	c5.753,0,10.416-4.664,10.416-10.417C100.916,38.747,96.253,34.083,90.5,34.083 M53,44.5c0-3.452,2.798-6.25,6.25-6.25h4.167
	c3.451,0,6.249,2.798,6.249,6.25c0,3.452-2.798,6.25-6.249,6.25H59.25C55.798,50.75,53,47.952,53,44.5 M48.833,44.5
	c0,5.753,4.664,10.417,10.417,10.417h4.167c5.752,0,10.416-4.664,10.416-10.417c0-5.753-4.664-10.417-10.416-10.417H59.25
	C53.497,34.083,48.833,38.747,48.833,44.5 M21.75,44.5c0,5.753,4.663,10.417,10.416,10.417h4.376c5.039,0,9.243-3.579,10.208-8.334
	h-4.315c-0.858,2.428-3.172,4.167-5.893,4.167h-4.376c-3.451,0-6.25-2.798-6.25-6.25c0-3.452,2.799-6.25,6.25-6.25h4.376
	c2.721,0,5.035,1.74,5.893,4.167h0.148h4.167v-8.334h-4.167v1.933c-1.704-1.216-3.789-1.933-6.041-1.933h-4.376
	C26.413,34.083,21.75,38.747,21.75,44.5 M25.916,13.25h4.167V4.917h-25v8.333H9.25V9.083h6.25v12.5h-4.167v4.167h12.5v-4.167h-4.167
	v-12.5h6.25V13.25z M46.191,15.333h-7.216l3.608-6.25L46.191,15.333z M44.666,25.75h12.5v-4.167h-2.555l-7.217-12.5h1.439V4.917
	h-3.844h-0.323h-8.333v4.166h1.439l-7.217,12.5H28v4.167h12.5v-4.167h-5.134l1.203-2.083h12.028l1.203,2.083h-5.134V25.75z
	 M59.25,25.75h25v-8.333h-4.167v4.166h-12.5v-12.5h4.167V4.917h-12.5v4.166h4.167v12.5H59.25V25.75z M111.333,25.75L111.333,25.75
	v-8.333h-4.166v4.166h-12.5v-12.5h4.166V4.917h-12.5v4.166H90.5v12.5h-4.167v4.167H111.333z M113.417,25.75h24.999v-8.333h-4.166
	v4.166h-12.5v-4.166h8.333V13.25h-8.333V9.083h12.5v4.167h4.166V4.917h-24.999v4.166h4.166v12.5h-4.166V25.75z M128,38.25h10.416
	v-4.167H128c-5.753,0-10.417,4.664-10.417,10.417c0,5.753,4.664,10.417,10.417,10.417h10.416v-8.334h4.167v-4.166h-12.5v4.166h4.167
	v4.167H128c-3.452,0-6.25-2.798-6.25-6.25C121.75,41.048,124.548,38.25,128,38.25 M159.25,13.25h-10.417V9.083h10.417
	c1.15,0,2.083,0.934,2.083,2.084C161.333,12.317,160.4,13.25,159.25,13.25 M164.067,25.75h5.599v-4.167h-4.119l-4.798-4.349
	c2.728-0.671,4.751-3.132,4.751-6.067c0-3.452-2.798-6.25-6.25-6.25H140.5v4.166h4.166v12.5H140.5v4.167H153v-4.167h-4.167v-4.166
	h6.25L164.067,25.75z"/>
<path fill="#C4D600" d="M13.605,39.387c0,1.412-1.144,2.556-2.556,2.556H8.492V36.83h2.557
	C12.461,36.83,13.605,37.974,13.605,39.387 M15.31,39.387c0-2.354-1.908-4.262-4.261-4.262H5.083v1.705h1.704v5.113H5.083v1.705
	h5.966C13.402,43.647,15.31,41.74,15.31,39.387 M5.083,53.875H15.31v-3.409h-1.705v1.704H8.492v-1.704h3.409v-1.704H8.492v-1.705
	h5.113v1.705h1.705v-3.409H5.083v1.704h1.704v5.113H5.083V53.875z M65.499,27.833h-8.333V32h8.333V27.833z"/>
</svg>
