<?xml version="1.0" encoding="utf-8"?>
<!-- Generator: Adobe Illustrator 18.0.0, SVG Export Plug-In . SVG Version: 6.00 Build 0)  -->
<!DOCTYPE svg PUBLIC "-//W3C//DTD SVG 1.1//EN" "http://www.w3.org/Graphics/SVG/1.1/DTD/svg11.dtd">
<svg version="1.1" id="Layer_1" xmlns="http://www.w3.org/2000/svg" xmlns:xlink="http://www.w3.org/1999/xlink" x="0px" y="0px"
	 viewBox="0 0 163.4 16.5" enable-background="new 0 0 163.4 16.5" xml:space="preserve">
<g>
	<g>
		<polygon fill="#FFFFFF" points="1.5,4.6 1.5,8.5 3.5,8.5 3.5,6.5 6.5,6.5 6.5,12.5 4.5,12.5 4.5,14.5 10.5,14.5 10.5,12.5 
			8.5,12.5 8.5,6.5 11.5,6.5 11.5,8.5 13.5,8.5 13.5,4.6 		"/>
		<polygon fill="#FFFFFF" points="65.1,8.5 65.1,4.6 65.1,4.6 53.2,4.6 53.2,6.5 55.2,6.5 55.2,12.5 53.2,12.5 53.2,14.5 65.1,14.5 
			65.1,14.5 65.1,10.5 63.2,10.5 63.2,12.5 57.2,12.5 57.2,10.5 61.2,10.5 61.2,8.5 57.2,8.5 57.2,6.5 63.2,6.5 63.2,8.5 		"/>
		<path fill="#FFFFFF" d="M78.1,12.5l-2.3-2.1c1.3-0.3,2.3-1.5,2.3-2.9c0-1.6-1.3-3-3-3c-0.3,0-8.9,0-8.9,0v2h2v6h-2v2h6v-2h-2v-2h3
			l4.3,4H80v-2H78.1z M70.1,8.5v-2h5c0.5,0,1,0.4,1,1c0,0.5-0.4,1-1,1H70.1z"/>
		<path fill="#FFFFFF" d="M26.4,14.5v-2h-1.2l-3.4-6h0.7v-2h-1.8h-0.2h-4v2h0.7l-3.4,6h-1.2v2h6v-2H16l0.6-1h5.7l0.6,1h-2.4v2H26.4z
			 M17.7,9.5l1.7-3l1.7,3H17.7z"/>
		<polygon fill="#FFFFFF" points="50.2,10.5 50.2,12.5 44.3,12.5 44.3,6.5 46.3,6.5 46.3,4.6 40.3,4.6 40.3,6.5 42.3,6.5 42.3,12.5 
			40.3,12.5 40.3,14.5 52.2,14.5 52.2,14.5 52.2,10.5 		"/>
		<polygon fill="#FFFFFF" points="37.3,10.5 37.3,12.5 31.4,12.5 31.4,6.5 33.3,6.5 33.3,4.6 27.4,4.6 27.4,6.5 29.4,6.5 29.4,12.5 
			27.4,12.5 27.4,14.5 39.3,14.5 39.3,14.5 39.3,10.5 		"/>
	</g>
	<g>
		<g>
			<path fill="#FFFFFF" d="M123.8,4.6c-0.3,0-7,0-7,0v2h2v6h-2v2c0,0,6.6,0,7,0c2.7,0,5-2.2,5-5S126.5,4.6,123.8,4.6z M123.8,12.5
				c-0.3,0-3,0-3,0v-6c0,0,2.6,0,3,0c1.6,0,3,1.3,3,3C126.8,11.2,125.4,12.5,123.8,12.5z"/>
			<polygon fill="#FFFFFF" points="135.7,12.5 133.7,12.5 133.7,6.5 135.7,6.5 135.7,4.6 129.7,4.6 129.7,6.5 131.7,6.5 131.7,12.5 
				129.7,12.5 129.7,14.5 135.7,14.5 			"/>
			<path fill="#FFFFFF" d="M110.9,4.6c-0.3,0-1.6,0-2,0c-2.7,0-5,2.2-5,5c0,2.7,2.2,5,5,5c0.3,0,1.6,0,2,0c2.7,0,5-2.2,5-5
				C115.8,6.8,113.6,4.6,110.9,4.6z M110.9,12.5c-0.3,0-1.6,0-2,0c-1.6,0-3-1.3-3-3c0-1.6,1.3-3,3-3c0.3,0,1.6,0,2,0
				c1.6,0,3,1.3,3,3C113.8,11.2,112.5,12.5,110.9,12.5z"/>
			<path fill="#FFFFFF" d="M156.6,4.6c-0.3,0-1.6,0-2,0c-2.7,0-5,2.2-5,5c0,2.7,2.2,5,5,5c0.3,0,1.6,0,2,0c2.7,0,5-2.2,5-5
				C161.5,6.8,159.3,4.6,156.6,4.6z M156.6,12.5c-0.3,0-1.6,0-2,0c-1.6,0-3-1.3-3-3c0-1.6,1.3-3,3-3c0.3,0,1.6,0,2,0
				c1.6,0,3,1.3,3,3C159.6,11.2,158.2,12.5,156.6,12.5z"/>
			<path fill="#FFFFFF" d="M96,6.5c0.3,0,1.7,0,2.1,0c1.3,0,2.4,0.8,2.8,2h0.1h2v-4h-2v0.9c-0.8-0.6-1.8-0.9-2.9-0.9
				c-0.3,0-1.7,0-2.1,0c-2.7,0-5,2.2-5,5c0,2.7,2.2,5,5,5c0.3,0,1.7,0,2.1,0c2.4,0,4.4-1.7,4.9-4h-2.1c-0.4,1.2-1.5,2-2.8,2
				c-0.3,0-1.7,0-2.1,0c-1.6,0-3-1.3-3-3C93,7.9,94.3,6.5,96,6.5z"/>
			<path fill="#FFFFFF" d="M148.6,8.5h-6v2h2v2c0,0-2.6,0-3,0c-1.6,0-3-1.3-3-3s1.3-3,3-3c0.3,0,5,0,5,0l0-2c0,0-4.6,0-5,0
				c-2.7,0-5,2.2-5,5s2.2,5,5,5c0.3,0,5,0,5,0v-4h2V8.5z"/>
		</g>
		<g>
			<rect x="107.9" y="1.6" fill="#C4D600" width="4" height="2"/>
			<g>
				<path fill="#C4D600" d="M85.9,5.1c-0.1,0-2.8,0-2.8,0v0.8h0.8v2.4H83v0.8c0,0,2.7,0,2.8,0c1.1,0,2-0.9,2-2
					C87.9,6,87,5.1,85.9,5.1z M85.9,8.3c-0.1,0-1.2,0-1.2,0V5.9c0,0,1.1,0,1.2,0c0.7,0,1.2,0.5,1.2,1.2C87.1,7.8,86.6,8.3,85.9,8.3z
					"/>
				<polygon fill="#C4D600" points="87.9,11.6 87.9,9.9 87.9,9.9 83,9.9 83,10.7 83.8,10.7 83.8,13.2 83,13.2 83,14 87.9,14 
					87.9,14 87.9,12.4 87.1,12.4 87.1,13.2 84.7,13.2 84.7,12.4 86.3,12.4 86.3,11.6 84.7,11.6 84.7,10.7 87.1,10.7 87.1,11.6 				
					"/>
			</g>
		</g>
	</g>
</g>
</svg>
