<?xml version="1.0" encoding="utf-8"?>
<!-- Generator: Adobe Illustrator 17.0.0, SVG Export Plug-In . SVG Version: 6.00 Build 0)  -->
<!DOCTYPE svg PUBLIC "-//W3C//DTD SVG 1.1//EN" "http://www.w3.org/Graphics/SVG/1.1/DTD/svg11.dtd">
<svg version="1.1" id="Layer_1" xmlns="http://www.w3.org/2000/svg" xmlns:xlink="http://www.w3.org/1999/xlink" x="0px" y="0px"
	 width="175px" height="18.515px" viewBox="0 0 175 18.515" enable-background="new 0 0 175 18.515" xml:space="preserve">
<polygon fill="#FFFFFF" points="2.327,5.15 2.327,9.351 4.427,9.351 4.427,7.251 7.577,7.251 7.577,13.552 5.477,13.552 
	5.477,15.652 11.777,15.652 11.777,13.552 9.677,13.552 9.677,7.251 12.828,7.251 12.828,9.351 14.928,9.351 14.928,5.15 "/>
<polygon fill="#FFFFFF" points="69.534,9.351 69.534,5.151 56.933,5.151 56.933,7.251 59.033,7.251 59.033,13.552 56.933,13.552 
	56.933,15.652 69.534,15.652 69.534,11.451 67.433,11.451 67.433,13.552 61.133,13.552 61.133,11.451 65.334,11.451 65.334,9.351 
	61.133,9.351 61.133,7.251 67.433,7.251 67.433,9.351 "/>
<path fill="#FFFFFF" d="M74.785,9.351v-2.1h5.251c0.579,0,1.05,0.47,1.05,1.05c0,0.58-0.471,1.05-1.05,1.05H74.785z M83.209,13.551
	l-2.418-2.192c1.375-0.338,2.395-1.579,2.395-3.058c0-1.74-1.411-3.15-3.15-3.15h-9.451v2.1h2.1v6.301h-2.1v2.1h6.301v-2.1h-2.1
	v-2.1h3.15l4.528,4.201h2.822v-2.1H83.209z"/>
<path fill="#FFFFFF" d="M19.41,10.401l1.819-3.15l1.819,3.15H19.41z M28.579,15.652v-2.1h-1.288l-3.638-6.301h0.725v-2.1h-1.938
	h-0.162h-4.201v2.1h0.725l-3.637,6.301h-1.288v2.1h6.301v-2.1h-2.587l0.606-1.05h6.063l0.606,1.05h-2.587v2.1H28.579z"/>
<polygon fill="#FFFFFF" points="53.782,11.451 53.782,13.552 47.482,13.552 47.482,7.251 49.582,7.251 49.582,5.151 43.281,5.151 
	43.281,7.251 45.381,7.251 45.381,13.552 43.281,13.552 43.281,15.652 55.883,15.652 55.883,11.451 "/>
<polygon fill="#FFFFFF" points="40.131,11.451 40.131,13.552 33.83,13.552 33.83,7.251 35.93,7.251 35.93,5.151 29.629,5.151 
	29.629,7.251 31.73,7.251 31.73,13.552 29.629,13.552 29.629,15.652 42.231,15.652 42.231,11.451 "/>
<path fill="#FFFFFF" d="M131.491,13.552h-3.15V7.251h3.15c1.74,0,3.15,1.41,3.15,3.15C134.641,12.141,133.23,13.552,131.491,13.552
	 M131.491,5.15h-7.351v2.1h2.1v6.301h-2.1v2.1h7.351c2.9,0,5.251-2.351,5.251-5.251C136.741,7.501,134.39,5.15,131.491,5.15"/>
<polygon fill="#FFFFFF" points="144.092,13.551 141.992,13.551 141.992,7.251 144.092,7.251 144.092,5.15 137.791,5.15 
	137.791,7.251 139.892,7.251 139.892,13.551 137.791,13.551 137.791,15.652 144.092,15.652 "/>
<path fill="#FFFFFF" d="M117.839,13.552h-2.1c-1.74,0-3.15-1.411-3.15-3.15c0-1.74,1.411-3.15,3.15-3.15h2.1
	c1.74,0,3.15,1.41,3.15,3.15C120.989,12.141,119.579,13.552,117.839,13.552 M117.839,5.15h-2.1c-2.9,0-5.25,2.351-5.25,5.251
	c0,2.9,2.351,5.251,5.25,5.251h2.1c2.9,0,5.251-2.351,5.251-5.251C123.09,7.501,120.739,5.15,117.839,5.15"/>
<path fill="#FFFFFF" d="M166.144,13.552h-2.1c-1.74,0-3.15-1.411-3.15-3.15c0-1.74,1.411-3.15,3.15-3.15h2.1
	c1.74,0,3.15,1.41,3.15,3.15C169.295,12.141,167.884,13.552,166.144,13.552 M166.144,5.15h-2.1c-2.9,0-5.251,2.351-5.251,5.251
	c0,2.9,2.351,5.251,5.251,5.251h2.1c2.9,0,5.251-2.351,5.251-5.251C171.395,7.501,169.044,5.15,166.144,5.15"/>
<path fill="#FFFFFF" d="M102.087,7.251h2.205c1.372,0,2.538,0.877,2.971,2.1h0.075h2.1V5.15h-2.1v0.974
	c-0.859-0.613-1.91-0.974-3.045-0.974h-2.205c-2.9,0-5.251,2.351-5.251,5.251c0,2.9,2.351,5.251,5.251,5.251h2.205
	c2.541,0,4.659-1.804,5.146-4.201h-2.175c-0.433,1.223-1.599,2.1-2.971,2.1h-2.205c-1.74,0-3.15-1.411-3.15-3.15
	S100.348,7.251,102.087,7.251"/>
<path fill="#FFFFFF" d="M157.744,9.351h-6.301v2.1h2.1v2.1h-3.151c-1.74,0-3.15-1.411-3.15-3.15c0-1.74,1.411-3.151,3.15-3.151
	h5.251v-2.1h-5.251c-2.9,0-5.25,2.351-5.25,5.251c0,2.9,2.351,5.25,5.25,5.25h5.251v-4.2h2.1V9.351z"/>
<rect x="114.689" y="2" fill="#C4D600" width="4.201" height="2.1"/>
<path fill="#C4D600" d="M91.443,9.112h-1.289V6.535h1.289c0.712,0,1.289,0.577,1.289,1.289C92.732,8.536,92.155,9.112,91.443,9.112
	 M91.443,5.676h-3.007v0.86h0.859v2.577h-0.859v0.859h3.007c1.186,0,2.148-0.961,2.148-2.148
	C93.591,6.637,92.629,5.676,91.443,5.676"/>
<polygon fill="#C4D600" points="93.591,12.549 93.591,10.831 88.436,10.831 88.436,11.69 89.295,11.69 89.295,14.267 88.436,14.267 
	88.436,15.127 93.591,15.127 93.591,13.409 92.732,13.409 92.732,14.267 90.155,14.267 90.155,13.409 91.873,13.409 91.873,12.549 
	90.155,12.549 90.155,11.69 92.732,11.69 92.732,12.549 "/>
</svg>
